<svg xmlns="http://www.w3.org/2000/svg" viewBox="0 0 100 100">
  <!-- Fond noir -->
  <rect width="100" height="100" fill="#0f0f0f" rx="20"/>

  <!-- Symbole infini style IoInfinite (arrondi moderne) - agrandi -->
  <path d="M 22 50 C 22 38 26 32 33 32 C 40 32 44 38 47 44 L 50 50 L 53 44 C 56 38 60 32 67 32 C 74 32 78 38 78 50 C 78 62 74 68 67 68 C 60 68 56 62 53 56 L 50 50 L 47 56 C 44 62 40 68 33 68 C 26 68 22 62 22 50 Z M 28 50 C 28 58 30 62 33 62 C 37 62 40 58 43 53 L 46 48 L 43 43 C 40 38 37 34 33 34 C 30 34 28 38 28 46 L 28 50 Z M 54 48 L 57 53 C 60 58 63 62 67 62 C 70 62 72 58 72 50 C 72 42 70 38 67 38 C 63 38 60 42 57 47 L 54 52 L 54 48 Z" 
        fill="#3b82f6" 
        stroke="#60a5fa" 
        stroke-width="1.5"
        stroke-linecap="round"
        stroke-linejoin="round"/>

  <!-- Texte ZOTECS agrandi -->
  <text x="50" y="85" font-family="Arial, sans-serif" font-size="13" font-weight="700" fill="white" text-anchor="middle" letter-spacing="1.2">ZOTECS</text>
</svg>
