<svg xmlns="http://www.w3.org/2000/svg" viewBox="0 0 100 100">
  <!-- Fond noir -->
  <rect width="100" height="100" fill="#0f0f0f" rx="20"/>

  <!-- Symbole infini style IoInfinite (arrondi moderne) - encore agrandi -->
  <path d="M 18 50 C 18 36 23 28 31 28 C 39 28 44 36 47 43 L 50 50 L 53 43 C 56 36 61 28 69 28 C 77 28 82 36 82 50 C 82 64 77 72 69 72 C 61 72 56 64 53 57 L 50 50 L 47 57 C 44 64 39 72 31 72 C 23 72 18 64 18 50 Z M 24 50 C 24 60 27 66 31 66 C 36 66 40 60 44 54 L 47 48 L 44 42 C 40 36 36 30 31 30 C 27 30 24 36 24 44 L 24 50 Z M 53 48 L 56 54 C 60 60 64 66 69 66 C 73 66 76 60 76 50 C 76 40 73 34 69 34 C 64 34 60 40 56 46 L 53 52 L 53 48 Z" 
        fill="#3b82f6" 
        stroke="#60a5fa" 
        stroke-width="1.5"
        stroke-linecap="round"
        stroke-linejoin="round"/>

  <!-- Texte ZOTECS encore agrandi -->
  <text x="50" y="88" font-family="Arial, sans-serif" font-size="18" font-weight="700" fill="white" text-anchor="middle" letter-spacing="1.2">ZOTECS</text>
</svg>
