<svg xmlns="http://www.w3.org/2000/svg" viewBox="0 0 100 100">
  <!-- Fond noir -->
  <rect width="100" height="100" fill="#0f0f0f" rx="20"/>

  <!-- Symbole infini (∞) en bleu -->
  <path d="M 25 50 C 25 40, 30 35, 37 35 C 44 35, 48 40, 50 45 C 52 40, 56 35, 63 35 C 70 35, 75 40, 75 50 C 75 60, 70 65, 63 65 C 56 65, 52 60, 50 55 C 48 60, 44 65, 37 65 C 30 65, 25 60, 25 50 Z M 35 50 C 35 45, 37 42, 40 42 C 43 42, 46 45, 48 50 C 46 55, 43 58, 40 58 C 37 58, 35 55, 35 50 Z M 52 50 C 54 45, 57 42, 60 42 C 63 42, 65 45, 65 50 C 65 55, 63 58, 60 58 C 57 58, 54 55, 52 50 Z" fill="#3b82f6" stroke="#60a5fa" stroke-width="1"/>

  <!-- Texte ZOTECS -->
  <text x="50" y="85" font-family="Arial, sans-serif" font-size="11" font-weight="700" fill="white" text-anchor="middle" letter-spacing="1.2">ZOTECS</text>
</svg>
