<svg xmlns="http://www.w3.org/2000/svg" viewBox="0 0 100 100">
  <!-- Fond noir -->
  <rect width="100" height="100" fill="#0f0f0f" rx="20"/>

  <!-- Symbole infini style IoInfinite (arrondi moderne) -->
  <path d="M 30 50 C 30 42 32 38 36 38 C 40 38 42 42 44 46 L 50 50 L 56 46 C 58 42 60 38 64 38 C 68 38 70 42 70 50 C 70 58 68 62 64 62 C 60 62 58 58 56 54 L 50 50 L 44 54 C 42 58 40 62 36 62 C 32 62 30 58 30 50 Z M 34 50 C 34 54 35 56 36 56 C 38 56 40 54 42 51 L 46 48 L 42 45 C 40 42 38 40 36 40 C 35 40 34 42 34 46 L 34 50 Z M 54 48 L 58 51 C 60 54 62 56 64 56 C 65 56 66 54 66 50 C 66 46 65 44 64 44 C 62 44 60 46 58 49 L 54 52 L 54 48 Z" 
        fill="#3b82f6" 
        stroke="#60a5fa" 
        stroke-width="1.5"
        stroke-linecap="round"
        stroke-linejoin="round"/>

  <!-- Texte ZOTECS -->
  <text x="50" y="85" font-family="Arial, sans-serif" font-size="11" font-weight="700" fill="white" text-anchor="middle" letter-spacing="1.2">ZOTECS</text>
</svg>
